<?xml version="1.0" standalone="no"?>
<!DOCTYPE svg PUBLIC "-//W3C//DTD SVG 20010904//EN"
 "http://www.w3.org/TR/2001/REC-SVG-20010904/DTD/svg10.dtd">
<svg version="1.0" xmlns="http://www.w3.org/2000/svg"
 width="1261.000000pt" height="820.000000pt" viewBox="0 0 1261.000000 820.000000"
 preserveAspectRatio="xMidYMid meet">

<g transform="translate(0.000000,820.000000) scale(0.100000,-0.100000)"
fill="#000000" stroke="none">
<path d="M6095 6918 c-194 -219 -410 -514 -535 -733 -19 -33 -43 -73 -52 -90
-83 -143 -220 -451 -278 -624 -255 -761 -212 -1470 131 -2151 38 -74 79 -153
92 -175 35 -58 159 -249 166 -255 3 -3 26 -32 50 -65 77 -104 225 -277 332
-387 l46 -47 6 62 c4 34 11 103 17 152 10 89 20 173 39 350 6 50 15 128 20
175 14 121 19 167 36 330 27 266 36 345 46 406 5 33 9 77 9 98 0 54 16 36 23
-26 3 -29 15 -138 26 -243 31 -285 41 -373 51 -455 5 -41 14 -122 20 -180 6
-58 15 -139 20 -180 5 -41 14 -122 20 -180 7 -58 16 -135 21 -172 5 -37 9 -84
9 -105 l1 -38 66 70 c280 299 475 570 621 865 94 188 103 209 153 354 96 282
143 561 143 851 -1 289 -31 489 -121 805 -133 465 -380 931 -732 1380 -90 115
-299 350 -311 350 -4 0 -65 -64 -135 -142z"/>
<path d="M3280 4373 c0 -89 35 -360 64 -498 142 -667 506 -1155 1028 -1381
134 -57 232 -88 383 -118 128 -26 445 -54 445 -40 0 4 -148 193 -160 204 -6 5
-81 98 -309 380 -47 58 -98 120 -113 139 -16 18 -27 35 -24 38 4 4 182 -133
269 -207 12 -10 103 -83 202 -161 99 -79 182 -145 185 -148 7 -8 82 -66 98
-75 11 -7 12 12 7 100 -29 515 -188 905 -493 1211 -274 274 -675 467 -1137
548 -105 19 -341 45 -402 45 -43 0 -43 0 -43 -37z"/>
<path d="M8980 4399 c-471 -52 -815 -166 -1130 -374 -397 -262 -643 -652 -724
-1148 -19 -112 -40 -366 -32 -374 3 -3 175 130 382 296 207 166 378 300 380
298 4 -3 -61 -95 -76 -107 -3 -3 -50 -60 -103 -127 -53 -68 -103 -131 -111
-140 -9 -10 -43 -54 -78 -98 -34 -44 -65 -82 -68 -85 -12 -10 -160 -200 -160
-204 0 -7 176 2 285 15 247 30 477 99 665 201 254 137 479 355 635 613 124
206 225 478 284 770 24 117 51 344 51 423 l0 52 -62 -1 c-35 -1 -97 -5 -138
-10z"/>
</g>
</svg>
