<?xml version="1.0" standalone="no"?>
<!DOCTYPE svg PUBLIC "-//W3C//DTD SVG 20010904//EN"
 "http://www.w3.org/TR/2001/REC-SVG-20010904/DTD/svg10.dtd">
<svg version="1.0" xmlns="http://www.w3.org/2000/svg"
 width="400.000000pt" height="400.000000pt" viewBox="0 0 400.000000 400.000000"
 preserveAspectRatio="xMidYMid meet">

<g transform="translate(0.000000,400.000000) scale(0.100000,-0.100000)"
fill="#000000" stroke="none">
<path d="M1855 3823 c-767 -68 -1409 -611 -1596 -1350 -74 -293 -77 -582 -9
-869 148 -630 631 -1136 1260 -1322 86 -26 236 -52 359 -63 306 -27 637 36
924 176 319 155 610 431 787 743 340 603 298 1372 -106 1932 -374 520 -994
809 -1619 753z m330 -43 c294 -34 557 -128 790 -285 415 -277 677 -679 772
-1181 21 -114 24 -432 4 -554 -74 -469 -315 -871 -690 -1153 -230 -173 -492
-285 -781 -332 -140 -23 -409 -23 -545 -1 -708 116 -1266 626 -1441 1317 -184
730 111 1484 751 1914 311 209 763 318 1140 275z"/>
<path d="M1753 3645 c-33 -33 -35 -39 -30 -82 13 -121 170 -141 223 -29 21 42
13 79 -26 117 -24 25 -37 29 -80 29 -46 0 -56 -4 -87 -35z m126 4 c22 -24 37
-95 26 -128 -10 -31 -50 -54 -81 -47 -48 12 -74 137 -37 178 22 24 68 23 92
-3z"/>
<path d="M2238 3664 c16 -8 15 -32 -4 -110 -12 -48 -22 -68 -37 -73 -16 -6 -4
-12 52 -24 103 -24 118 -22 157 17 39 39 45 80 18 126 -24 40 -61 58 -134 64
-36 3 -59 3 -52 0z m117 -26 c16 -7 29 -25 36 -48 15 -50 -16 -126 -55 -136
-37 -9 -80 20 -72 49 3 12 11 50 18 85 12 67 22 74 73 50z"/>
<path d="M1525 3619 c-44 -8 -115 -36 -115 -45 0 -3 7 -4 15 0 18 7 27 -10 50
-96 15 -58 16 -70 4 -85 -13 -15 -12 -16 6 -9 11 4 43 14 72 21 93 24 113 44
113 112 0 73 -63 117 -145 102z m56 -19 c26 -15 49 -62 49 -105 0 -42 -29 -75
-66 -75 -28 0 -41 24 -65 118 -11 46 -11 55 1 62 20 13 57 12 81 0z"/>
<path d="M2520 3600 c0 -5 5 -10 10 -12 16 -5 -43 -170 -63 -177 -12 -4 -4
-11 28 -22 25 -9 45 -13 45 -9 0 5 -5 10 -11 12 -16 5 42 169 63 177 13 5 6
10 -27 22 -25 9 -45 13 -45 9z"/>
<path d="M1300 3530 c-14 -11 -18 -18 -9 -15 12 5 26 -9 52 -52 20 -32 32 -60
26 -61 -5 -2 -46 8 -92 22 -109 33 -107 33 -147 16 l-35 -15 28 -5 c23 -4 36
-19 69 -79 39 -72 40 -75 22 -89 -11 -8 -14 -12 -9 -10 6 3 25 11 43 18 37 16
42 27 11 26 -16 -1 -30 14 -55 59 -18 32 -31 61 -29 63 2 2 56 -12 120 -33 65
-20 120 -34 123 -31 2 3 -16 42 -42 87 -29 48 -46 89 -43 100 6 24 -2 24 -33
-1z"/>
<path d="M2667 3512 c-26 -28 -21 -67 14 -106 37 -42 35 -70 -4 -74 -35 -4
-57 13 -57 44 0 28 -15 32 -25 7 -7 -20 34 -62 63 -64 84 -6 109 54 51 124
-31 38 -33 62 -4 73 20 8 55 -23 55 -48 0 -11 5 -16 10 -13 20 12 10 45 -20
60 -38 20 -63 19 -83 -3z"/>
<path d="M2827 3399 c-9 -5 -24 -23 -32 -39 -30 -59 -14 -115 46 -155 44 -29
62 -31 79 -10 11 13 7 15 -30 13 -91 -3 -106 86 -27 160 18 17 34 23 58 20 33
-3 47 -18 64 -73 7 -19 8 -18 17 5 8 22 5 29 -26 58 -30 27 -43 32 -83 32 -27
0 -56 -5 -66 -11z"/>
<path d="M1850 3384 c-591 -75 -1054 -500 -1186 -1089 -22 -98 -30 -347 -15
-454 45 -317 182 -583 414 -808 192 -186 422 -305 692 -359 123 -24 376 -25
498 -1 555 110 972 520 1093 1077 25 118 30 356 9 481 -56 340 -218 627 -470
837 -189 157 -372 244 -625 298 -65 14 -344 26 -410 18z m357 -50 c550 -81
994 -512 1104 -1069 18 -91 18 -408 1 -490 -25 -113 -64 -230 -107 -320 -181
-377 -506 -636 -918 -732 -98 -23 -133 -27 -282 -26 -134 0 -190 4 -265 21
-561 123 -970 563 -1051 1131 -15 104 -6 338 16 441 118 550 565 969 1118
1049 100 14 272 12 384 -5z"/>
<path d="M2377 3110 c-238 -345 -396 -651 -462 -895 -24 -86 -28 -125 -32
-275 -4 -161 -2 -189 26 -360 18 -102 43 -257 57 -345 14 -88 29 -173 34 -190
7 -26 8 -22 9 28 4 201 79 490 193 742 144 317 183 406 204 469 29 83 28 79 6
67 -10 -5 -47 -12 -82 -16 -181 -18 -253 -45 -314 -116 -43 -51 -48 -38 -7 19
54 74 128 114 281 153 146 37 165 55 178 163 8 60 2 86 -11 52 -3 -7 -45 -32
-94 -55 -207 -100 -238 -117 -286 -160 -27 -25 -45 -37 -39 -25 18 35 94 98
208 174 185 125 234 182 234 272 l0 43 -35 -52 c-31 -46 -87 -95 -219 -190
-25 -18 -48 -33 -52 -33 -3 0 26 35 66 77 196 209 239 306 208 468 l-13 70
-58 -85z"/>
<path d="M3147 1855 c-44 -55 -194 -166 -381 -281 -377 -234 -479 -306 -596
-424 -48 -48 -88 -100 -110 -143 -28 -52 -40 -67 -57 -67 -13 0 -23 5 -23 11
0 5 -5 7 -11 4 -5 -4 -36 18 -68 48 -108 103 -230 167 -536 282 -212 79 -316
125 -364 162 -41 32 -38 19 15 -64 98 -153 126 -171 360 -228 235 -56 296 -72
355 -94 62 -24 180 -90 161 -91 -15 0 -711 157 -739 167 -24 8 40 -60 86 -92
28 -18 115 -42 371 -100 184 -42 352 -79 372 -82 23 -3 81 5 155 22 65 15 154
35 198 45 44 11 152 35 240 55 88 20 173 45 190 55 36 23 116 105 94 98 -18
-7 -624 -147 -688 -159 -24 -5 -46 -7 -49 -5 -6 7 97 64 157 87 59 22 120 38
355 94 187 45 242 70 288 126 45 55 119 171 114 176 -2 3 -22 -7 -44 -22 -48
-32 -189 -93 -332 -145 -309 -112 -459 -191 -560 -294 -48 -50 -68 -59 -49
-24 24 44 113 129 198 187 83 57 180 108 533 280 181 89 308 167 332 203 8 13
20 43 26 67 11 43 39 181 36 181 0 0 -14 -16 -29 -35z"/>
<path d="M840 1856 c0 -35 40 -189 55 -212 31 -47 158 -120 555 -315 280 -138
364 -192 464 -300 l60 -64 -30 55 c-35 66 -160 194 -267 274 -43 32 -160 109
-260 171 -323 201 -437 279 -508 346 -56 54 -69 62 -69 45z"/>
<path d="M974 3327 c-27 -23 -61 -50 -75 -60 -22 -16 -22 -17 -3 -12 17 4 33
-8 79 -65 51 -62 56 -72 44 -87 -12 -15 -12 -16 1 -8 29 17 150 117 150 124 0
4 -7 16 -15 27 -11 14 -15 15 -14 4 3 -37 -3 -51 -37 -77 l-37 -27 -28 34
c-22 26 -26 37 -17 47 22 27 48 35 65 21 14 -11 15 -11 5 8 -6 11 -18 26 -26
34 -14 10 -16 9 -16 -7 0 -20 -29 -53 -46 -53 -10 0 -54 53 -54 64 0 3 17 17
37 30 26 18 44 24 62 19 23 -6 25 -5 12 10 -20 25 -30 21 -87 -26z"/>
<path d="M3073 3288 c9 -24 -101 -151 -125 -144 -25 6 -23 0 15 -34 32 -30 59
-41 39 -17 -9 10 2 29 45 78 33 37 64 64 75 63 25 -1 22 7 -20 41 -24 20 -34
24 -29 13z"/>
<path d="M781 3156 c-64 -67 -48 -157 34 -192 40 -16 72 -9 108 25 43 39 58
72 42 94 -18 26 -24 21 -18 -16 3 -23 -1 -39 -14 -56 -38 -47 -119 -20 -158
53 -19 35 -19 36 1 63 14 18 32 29 52 31 34 3 42 16 16 26 -25 9 -28 8 -63
-28z"/>
<path d="M3206 3166 c7 -19 -124 -118 -148 -112 -15 3 -14 0 4 -25 26 -34 28
-35 21 -10 -4 14 9 29 51 60 30 23 58 41 61 41 4 0 -12 -34 -34 -75 -23 -41
-41 -78 -41 -83 0 -5 39 1 87 14 48 13 89 22 91 20 1 -2 -22 -25 -52 -51 -42
-36 -60 -45 -76 -40 l-21 7 20 -24 c11 -12 27 -32 35 -43 16 -20 16 -20 13 1
-3 29 109 126 140 121 l22 -4 -20 28 c-11 16 -21 29 -22 29 -1 0 -36 -9 -77
-20 -41 -10 -76 -18 -78 -16 -2 2 13 36 33 75 35 70 35 72 18 96 -20 27 -36
33 -27 11z"/>
<path d="M644 2950 c-40 -16 -74 -68 -74 -114 0 -54 28 -91 79 -107 123 -37
202 149 91 214 -30 18 -63 21 -96 7z m73 -50 c62 -37 76 -86 37 -125 -46 -46
-178 30 -165 95 9 50 72 65 128 30z"/>
<path d="M3415 2891 c4 -15 -8 -25 -65 -56 -42 -21 -75 -46 -79 -58 -16 -43
24 -118 71 -133 11 -3 44 8 84 31 41 22 73 33 85 30 18 -6 18 -5 1 24 -13 24
-18 27 -20 13 -4 -23 -88 -73 -133 -79 -30 -4 -39 -1 -53 18 -19 28 -21 63 -3
77 6 6 40 26 74 45 46 26 64 32 73 23 13 -12 13 -11 -13 47 -18 38 -33 51 -22
18z"/>
<path d="M486 2667 c-19 -15 -36 -46 -51 -92 -22 -65 -25 -97 -5 -65 7 11 22
9 86 -16 63 -23 79 -34 84 -53 5 -22 7 -20 20 20 8 24 20 55 27 69 7 14 13 42
13 63 0 84 -105 129 -174 74z m113 -34 c35 -21 52 -58 40 -91 -13 -35 -33 -36
-114 -7 -83 31 -94 49 -53 92 26 28 83 31 127 6z"/>
<path d="M3482 2600 c-16 -15 -22 -33 -22 -61 0 -71 -29 -99 -63 -61 -21 24
-22 56 -1 77 21 21 12 30 -16 15 -18 -9 -20 -17 -14 -43 14 -67 50 -96 98 -78
27 11 36 29 36 75 0 17 7 42 16 54 12 18 19 20 35 12 21 -12 25 -50 7 -68 -15
-15 -6 -24 16 -16 20 8 21 36 1 73 -23 45 -58 53 -93 21z"/>
<path d="M3511 2105 c0 -71 5 -112 17 -140 21 -52 20 -157 -2 -259 l-18 -79
-34 70 c-18 39 -41 76 -50 84 -16 13 -17 7 -11 -93 4 -77 12 -121 28 -157 l21
-51 -22 -55 c-33 -82 -85 -176 -93 -168 -4 3 -7 21 -7 38 0 17 -8 54 -17 81
l-17 49 -18 -60 c-25 -81 -36 -169 -28 -216 7 -38 5 -42 -74 -136 -44 -53 -86
-98 -91 -100 -7 -2 -10 19 -7 62 2 35 1 82 -3 102 l-7 38 -29 -55 c-36 -69
-69 -172 -69 -214 0 -21 -8 -40 -22 -53 -34 -31 -166 -117 -227 -147 -37 -19
-50 -31 -43 -38 7 -7 29 0 70 22 58 31 61 31 86 15 41 -27 140 -16 223 25 82
41 71 50 -60 50 l-98 0 73 59 c40 32 94 79 120 104 43 42 49 44 90 40 35 -4
56 1 96 21 62 31 155 118 132 123 -13 3 -83 -15 -175 -44 -14 -5 -5 12 31 58
28 35 66 92 85 126 29 54 38 63 62 63 41 0 77 22 129 78 42 44 97 132 83 132
-11 0 -91 -43 -133 -72 -24 -17 -45 -28 -47 -26 -2 2 9 34 25 71 16 37 36 101
46 142 12 51 22 75 32 75 29 0 83 43 108 86 29 49 68 164 59 173 -3 3 -40 -30
-82 -73 l-76 -78 8 59 c4 32 14 71 22 87 10 20 13 42 8 76 -7 48 -49 147 -79
185 -14 19 -15 13 -15 -80z"/>
<path d="M474 2165 c-25 -37 -61 -127 -70 -177 -4 -25 -1 -47 9 -68 9 -16 19
-56 22 -88 l7 -57 -77 75 -77 75 5 -41 c11 -89 90 -204 151 -220 19 -4 27 -18
41 -72 9 -37 30 -99 46 -139 16 -39 29 -75 29 -78 0 -4 -15 3 -32 14 -46 30
-148 82 -148 76 0 -3 9 -24 20 -46 44 -84 134 -159 194 -159 19 0 32 -13 62
-62 21 -35 57 -89 81 -120 24 -31 43 -59 43 -61 0 -3 -33 5 -72 18 -40 12 -86
25 -101 29 -25 6 -27 5 -18 -12 14 -27 72 -76 128 -108 36 -22 60 -28 103 -29
54 0 59 -2 111 -52 31 -29 82 -74 115 -99 76 -59 75 -58 32 -50 -47 9 -189 -4
-182 -16 11 -17 100 -56 157 -68 61 -12 109 -7 131 15 11 12 23 9 74 -18 33
-17 64 -28 69 -23 4 5 1 12 -7 17 -8 5 -54 32 -101 60 -109 64 -185 122 -181
139 10 42 -76 280 -101 280 -5 0 -7 -45 -5 -100 1 -55 0 -100 -3 -100 -7 0
-93 96 -151 168 -25 30 -27 38 -21 95 5 56 -14 159 -43 237 -8 21 -24 -19 -39
-100 l-12 -65 -58 119 c-56 118 -57 120 -42 150 27 52 37 107 37 196 l-1 85
-25 -30 c-13 -16 -32 -51 -42 -77 -9 -27 -20 -48 -24 -48 -12 0 -41 153 -42
220 0 40 7 82 17 109 14 33 17 66 15 140 l-3 96 -21 -30z"/>
<path d="M2421 611 c-10 -7 -11 -9 -1 -13 9 -3 11 -13 6 -31 -8 -32 -16 -33
-47 -7 -21 17 -22 21 -9 30 20 13 13 12 -40 -4 -25 -8 -39 -15 -32 -15 7 -1
31 -16 53 -33 36 -29 40 -36 35 -63 -4 -16 -15 -42 -26 -56 l-19 -27 37 11
c23 7 30 13 19 15 -20 4 -20 1 -6 41 13 38 21 39 51 2 20 -23 30 -27 58 -23
30 4 31 6 13 16 -11 6 -37 25 -57 43 l-36 32 20 46 c19 45 14 56 -19 36z"/>
<path d="M1608 593 c10 -8 9 -24 -4 -84 -9 -41 -23 -79 -30 -85 -12 -9 -9 -12
15 -16 24 -3 28 -2 20 8 -7 9 -7 30 0 70 6 32 11 60 11 63 0 3 4 1 9 -4 5 -6
16 -42 26 -82 l17 -72 45 65 c25 36 43 68 40 70 -2 2 -17 -15 -32 -38 l-28
-43 -20 70 c-10 39 -20 71 -21 72 0 1 -15 4 -31 8 -19 4 -25 3 -17 -2z"/>
<path d="M2245 571 c-26 -5 -32 -14 -48 -61 -9 -30 -19 -62 -22 -70 -4 -9 -19
7 -45 48 -31 49 -45 62 -65 62 -24 0 -35 -15 -15 -22 5 -1 11 -40 12 -85 3
-80 4 -83 27 -83 22 0 23 2 9 13 -10 7 -19 36 -23 77 l-6 65 40 -63 c23 -34
41 -67 41 -72 0 -6 4 -10 8 -10 5 0 20 37 33 83 l25 82 13 -69 c12 -58 12 -70
0 -77 -12 -7 -11 -9 1 -9 34 0 60 12 51 24 -5 6 -14 42 -20 80 -9 62 -8 71 7
82 9 8 15 13 12 12 -3 0 -18 -3 -35 -7z"/>
<path d="M1774 559 c-3 -6 -8 -43 -9 -82 -3 -54 -7 -74 -21 -84 -16 -12 -16
-13 7 -13 13 0 35 -3 49 -6 22 -5 23 -4 7 6 -13 8 -16 20 -13 43 3 18 8 53 11
80 5 34 11 47 22 47 22 0 14 6 -19 14 -16 3 -30 1 -34 -5z"/>
<path d="M1904 550 c-33 -13 -54 -50 -54 -96 0 -35 5 -47 31 -68 49 -41 139
-33 139 12 0 10 -7 8 -26 -7 -32 -25 -52 -26 -82 -5 -18 12 -22 25 -22 70 0
85 47 118 104 73 21 -17 26 -18 26 -5 0 31 -67 46 -116 26z"/>
</g>
</svg>
