<?xml version="1.0" standalone="no"?>
<!DOCTYPE svg PUBLIC "-//W3C//DTD SVG 20010904//EN"
 "http://www.w3.org/TR/2001/REC-SVG-20010904/DTD/svg10.dtd">
<svg version="1.0" xmlns="http://www.w3.org/2000/svg"
 width="1435.000000pt" height="1418.000000pt" viewBox="0 0 1435.000000 1418.000000"
 preserveAspectRatio="xMidYMid meet">

<g transform="translate(0.000000,1418.000000) scale(0.100000,-0.100000)"
fill="#000000" stroke="none">
<path d="M6605 14079 c-1412 -98 -2769 -626 -3872 -1505 -230 -183 -374 -313
-603 -543 -228 -229 -375 -394 -561 -631 -864 -1101 -1373 -2435 -1469 -3848
-13 -198 -13 -726 0 -924 96 -1413 605 -2747 1469 -3848 186 -237 333 -402
561 -631 229 -230 373 -360 603 -543 1112 -886 2463 -1408 3895 -1506 198 -13
726 -13 924 0 2062 140 3928 1158 5163 2815 1453 1949 1785 4524 876 6792
-651 1625 -1941 2988 -3529 3728 -793 369 -1633 585 -2510 645 -177 12 -770
11 -947 -1z m1075 -93 c911 -82 1749 -321 2545 -726 1127 -573 2081 -1450
2752 -2530 813 -1308 1161 -2853 992 -4405 -291 -2679 -2144 -4962 -4714
-5808 -515 -170 -1012 -271 -1585 -324 -271 -24 -896 -24 -1160 0 -355 34
-614 74 -926 142 -2210 489 -4062 2060 -4913 4167 -258 640 -408 1273 -478
2008 -24 261 -24 899 0 1160 114 1208 477 2252 1122 3230 1110 1682 2899 2798
4895 3054 112 15 416 42 550 50 150 8 755 -4 920 -18z"/>
<path d="M6967 13462 c-825 -898 -1388 -1965 -1572 -2975 -93 -511 -92 -1026
1 -1511 144 -749 511 -1474 1087 -2146 111 -129 338 -373 343 -368 1 2 64 555
139 1228 75 673 138 1226 139 1228 7 6 17 -78 147 -1261 l133 -1197 34 32
c134 128 404 441 555 643 515 689 803 1391 893 2170 32 278 23 711 -22 1020
-138 961 -633 1997 -1380 2890 -98 117 -350 395 -358 395 -2 0 -65 -67 -139
-148z"/>
<path d="M2603 9414 c30 -624 207 -1260 482 -1731 424 -724 1075 -1151 1943
-1273 123 -17 510 -46 517 -38 2 2 -201 255 -452 563 -478 589 -506 624 -482
610 7 -5 272 -215 586 -467 315 -252 576 -458 579 -458 7 0 -2 204 -17 360
-88 944 -543 1668 -1324 2105 -481 269 -1085 433 -1694 462 l-144 6 6 -139z"/>
<path d="M11390 9543 c-358 -33 -584 -72 -840 -143 -560 -155 -1018 -408
-1366 -755 -71 -71 -160 -168 -196 -215 -354 -458 -531 -982 -564 -1669 -6
-121 -5 -143 7 -135 8 4 272 215 587 467 316 252 575 457 578 455 2 -2 -208
-268 -467 -591 l-470 -588 128 6 c726 35 1265 218 1728 585 99 79 280 259 365
365 331 408 572 976 675 1590 29 177 55 434 55 552 l0 83 -92 -2 c-51 0 -109
-3 -128 -5z"/>
<path d="M983 5456 c-91 -29 -176 -106 -220 -201 -25 -53 -28 -71 -28 -160 0
-89 3 -106 27 -155 75 -153 233 -236 399 -209 121 19 221 95 276 207 24 50 27
68 28 157 0 93 -2 105 -33 167 -41 83 -120 158 -197 187 -65 24 -185 27 -252
7z m215 -135 c139 -72 181 -252 88 -374 -88 -116 -260 -126 -357 -20 -110 118
-77 322 63 392 57 28 154 29 206 2z"/>
<path d="M1823 5456 c-91 -29 -176 -106 -220 -201 -25 -53 -28 -71 -28 -160 0
-89 3 -106 27 -155 75 -153 233 -236 399 -209 121 19 221 95 276 207 24 50 27
68 28 157 0 93 -2 105 -33 167 -41 83 -120 158 -197 187 -65 24 -185 27 -252
7z m215 -135 c139 -72 181 -252 88 -374 -88 -116 -260 -126 -357 -20 -110 118
-77 322 63 392 57 28 154 29 206 2z"/>
<path d="M2673 5456 c-91 -29 -176 -106 -220 -201 -25 -53 -28 -71 -28 -160 0
-89 3 -106 27 -155 75 -153 233 -236 399 -209 121 19 221 95 276 207 24 50 27
68 28 157 0 93 -2 105 -33 167 -41 83 -120 158 -197 187 -65 24 -185 27 -252
7z m215 -135 c139 -72 181 -252 88 -374 -88 -116 -260 -126 -357 -20 -110 118
-77 322 63 392 57 28 154 29 206 2z"/>
<path d="M4030 5100 l0 -360 59 0 58 0 137 228 136 227 0 -227 0 -228 65 0 65
0 0 360 0 360 -53 0 -52 0 -135 -228 -135 -229 -5 226 -5 226 -67 3 -68 3 0
-361z"/>
<path d="M5987 5265 c-169 -62 -227 -288 -113 -438 89 -116 310 -130 418 -26
l43 41 -54 24 -54 24 -54 -26 c-63 -31 -125 -29 -174 7 -28 20 -59 66 -59 89
0 7 72 10 216 10 l217 0 -7 58 c-13 115 -79 204 -175 237 -55 18 -153 18 -204
0z m183 -114 c19 -10 43 -32 53 -50 l19 -31 -146 0 c-80 0 -146 3 -146 8 0 16
34 54 64 73 40 24 111 25 156 0z"/>
<path d="M7717 5265 c-169 -62 -227 -288 -113 -438 89 -116 310 -130 418 -26
l43 41 -54 24 -54 24 -54 -26 c-63 -31 -125 -29 -174 7 -28 20 -59 66 -59 89
0 7 72 10 216 10 l217 0 -7 58 c-13 115 -79 204 -175 237 -55 18 -153 18 -204
0z m183 -114 c19 -10 43 -32 53 -50 l19 -31 -146 0 c-80 0 -146 3 -146 8 0 16
34 54 64 73 40 24 111 25 156 0z"/>
<path d="M10000 5264 c-50 -22 -99 -71 -126 -129 -31 -65 -33 -189 -5 -250 58
-128 200 -189 317 -136 23 10 45 24 48 30 12 19 26 12 26 -14 0 -24 2 -25 65
-25 l65 0 0 265 0 265 -65 0 c-62 0 -65 -1 -65 -24 l0 -25 -56 30 c-64 33
-145 39 -204 13z m226 -146 c91 -100 26 -268 -103 -268 -87 0 -145 62 -146
153 -1 104 56 161 157 154 53 -3 62 -7 92 -39z"/>
<path d="M13097 5265 c-169 -62 -227 -288 -113 -438 89 -116 310 -130 418 -26
l43 41 -54 24 -54 24 -54 -26 c-63 -31 -125 -29 -174 7 -28 20 -59 66 -59 89
0 7 72 10 216 10 l217 0 -7 58 c-13 115 -79 204 -175 237 -55 18 -153 18 -204
0z m183 -114 c19 -10 43 -32 53 -50 l19 -31 -146 0 c-80 0 -146 3 -146 8 0 16
34 54 64 73 40 24 111 25 156 0z"/>
<path d="M3548 5138 l-45 -133 44 -132 45 -133 59 0 c32 0 59 4 59 8 0 5 -18
59 -40 121 -22 61 -40 122 -40 134 0 13 18 77 40 142 22 65 40 120 40 122 0 2
-27 3 -59 3 l-59 0 -44 -132z"/>
<path d="M3771 5138 l-44 -132 44 -133 43 -133 58 0 c32 0 58 3 58 7 0 4 -19
64 -42 133 l-41 126 41 124 c23 69 42 128 42 133 0 4 -26 7 -58 7 l-58 0 -43
-132z"/>
<path d="M4700 5005 l0 -265 65 0 65 0 0 110 0 110 100 0 100 0 0 -110 0 -110
65 0 65 0 0 265 0 265 -65 0 -65 0 0 -95 0 -95 -100 0 -100 0 0 95 0 95 -65 0
-65 0 0 -265z"/>
<path d="M5250 5210 l0 -59 93 -3 92 -3 3 -202 2 -203 65 0 65 0 0 205 0 205
85 0 85 0 0 60 0 60 -245 0 -245 0 0 -60z"/>
<path d="M6626 5238 c-7 -18 -57 -135 -110 -260 -53 -125 -96 -230 -96 -233 0
-3 28 -5 63 -5 l63 0 63 158 c35 86 67 161 71 165 4 5 37 -65 73 -155 l65
-163 66 -3 c61 -3 65 -2 58 16 -4 11 -54 130 -112 265 l-105 247 -42 0 c-39 0
-44 -3 -57 -32z"/>
<path d="M7176 5238 c-7 -18 -57 -135 -110 -260 -53 -125 -96 -230 -96 -233 0
-3 28 -5 63 -5 l63 0 63 158 c35 86 67 161 71 165 4 5 37 -65 73 -155 l65
-163 66 -3 c61 -3 65 -2 58 16 -4 11 -54 130 -112 265 l-105 247 -42 0 c-39 0
-44 -3 -57 -32z"/>
<path d="M8210 5005 l0 -265 65 0 65 0 0 89 c0 50 4 92 8 95 5 3 44 -38 87
-90 l79 -94 83 0 c46 0 83 2 83 5 0 3 -52 64 -116 136 l-115 131 53 58 c29 33
82 91 117 130 l63 70 -78 0 -78 0 -93 -97 -92 -98 -1 98 0 97 -65 0 -65 0 0
-265z"/>
<path d="M8700 5210 l0 -59 93 -3 92 -3 3 -202 2 -203 65 0 65 0 0 205 0 205
85 0 85 0 0 60 0 60 -245 0 -245 0 0 -60z"/>
<path d="M9245 5233 c9 -21 55 -132 102 -246 l85 -208 -47 -102 c-26 -56 -50
-108 -52 -115 -4 -10 10 -12 61 -10 l67 3 135 295 c75 162 149 323 164 358
l29 62 -67 0 -67 0 -75 -165 c-41 -90 -76 -162 -79 -159 -3 3 -35 76 -71 162
l-66 157 -67 3 -68 3 16 -38z"/>
<path d="M10676 5238 c-7 -18 -57 -135 -110 -260 -53 -125 -96 -230 -96 -233
0 -3 28 -5 63 -5 l63 0 63 158 c35 86 67 161 71 165 4 5 37 -65 73 -155 l65
-163 66 -3 c61 -3 65 -2 58 16 -4 11 -54 130 -112 265 l-105 247 -42 0 c-39 0
-44 -3 -57 -32z"/>
<path d="M11070 5004 l0 -266 148 4 c167 4 200 15 233 78 27 50 26 137 -4 180
-33 51 -72 68 -165 76 l-82 7 0 93 0 94 -65 0 -65 0 0 -266z m236 -42 c13 -9
34 -46 34 -62 0 -6 -11 -22 -25 -35 -18 -19 -35 -25 -70 -25 l-45 0 0 65 0 65
48 0 c26 0 52 -4 58 -8z"/>
<path d="M11580 5005 l0 -265 65 0 65 0 0 110 0 110 100 0 100 0 0 -110 0
-110 65 0 65 0 0 265 0 265 -65 0 -65 0 0 -95 0 -95 -100 0 -100 0 0 95 0 95
-65 0 -65 0 0 -265z"/>
<path d="M12180 5004 l0 -266 148 4 c167 4 200 15 233 78 27 50 26 137 -4 180
-33 51 -72 68 -165 76 l-82 7 0 93 0 94 -65 0 -65 0 0 -266z m236 -42 c13 -9
34 -46 34 -62 0 -6 -11 -22 -25 -35 -18 -19 -35 -25 -70 -25 l-45 0 0 65 0 65
48 0 c26 0 52 -4 58 -8z"/>
<path d="M12680 5005 l0 -265 65 0 65 0 0 265 0 265 -65 0 -65 0 0 -265z"/>
<path d="M1670 4061 c-129 -40 -205 -141 -204 -271 2 -168 135 -280 318 -268
77 5 153 37 194 80 l22 24 -52 37 c-51 35 -53 36 -73 18 -34 -32 -62 -41 -118
-41 -93 0 -161 63 -161 148 0 94 57 153 153 160 50 4 66 0 108 -23 l48 -27 48
27 c26 15 47 30 47 35 0 17 -84 80 -128 94 -47 17 -158 20 -202 7z"/>
<path d="M2910 4061 c-129 -40 -205 -141 -204 -271 2 -168 135 -280 318 -268
77 5 153 37 194 80 l22 24 -52 37 c-51 35 -53 36 -73 18 -34 -32 -62 -41 -118
-41 -93 0 -161 63 -161 148 0 94 57 153 153 160 50 4 66 0 108 -23 l48 -27 48
27 c26 15 47 30 47 35 0 17 -84 80 -128 94 -47 17 -158 20 -202 7z"/>
<path d="M4047 4055 c-169 -62 -227 -288 -113 -438 89 -116 310 -130 418 -26
l43 41 -54 24 -54 24 -54 -26 c-63 -31 -125 -29 -174 7 -28 20 -59 66 -59 89
0 7 72 10 216 10 l217 0 -7 58 c-13 115 -79 204 -175 237 -55 18 -153 18 -204
0z m183 -114 c19 -10 43 -32 53 -50 l19 -31 -146 0 c-80 0 -146 3 -146 8 0 16
34 54 64 73 40 24 111 25 156 0z"/>
<path d="M6435 4057 c-16 -7 -39 -17 -50 -24 -20 -12 -20 -12 4 -57 24 -44 25
-44 52 -30 58 29 119 7 119 -43 0 -27 -31 -53 -63 -53 -25 0 -27 -3 -27 -45 0
-38 3 -45 20 -45 81 0 110 -91 39 -121 -27 -10 -37 -9 -78 8 l-47 20 -32 -42
c-18 -23 -32 -45 -32 -48 0 -19 91 -51 157 -55 63 -4 79 -1 126 21 106 53 130
166 49 237 l-40 36 29 32 c59 65 29 172 -58 208 -39 17 -127 17 -168 1z"/>
<path d="M6977 4055 c-169 -62 -227 -288 -113 -438 89 -116 310 -130 418 -26
l43 41 -54 24 -54 24 -54 -26 c-63 -31 -125 -29 -174 7 -28 20 -59 66 -59 89
0 7 72 10 216 10 l217 0 -7 58 c-13 115 -79 204 -175 237 -55 18 -153 18 -204
0z m183 -114 c19 -10 43 -32 53 -50 l19 -31 -146 0 c-80 0 -146 3 -146 8 0 16
34 54 64 73 40 24 111 25 156 0z"/>
<path d="M8947 4055 c-169 -62 -227 -288 -113 -438 89 -116 310 -130 418 -26
l43 41 -54 24 -54 24 -54 -26 c-63 -31 -125 -29 -174 7 -28 20 -59 66 -59 89
0 7 72 10 216 10 l217 0 -7 58 c-13 115 -79 204 -175 237 -55 18 -153 18 -204
0z m183 -114 c19 -10 43 -32 53 -50 l19 -31 -146 0 c-80 0 -146 3 -146 8 0 16
34 54 64 73 40 24 111 25 156 0z"/>
<path d="M10237 4055 c-169 -62 -227 -288 -113 -438 89 -116 310 -130 418 -26
l43 41 -54 24 -54 24 -54 -26 c-63 -31 -125 -29 -174 7 -28 20 -59 66 -59 89
0 7 72 10 216 10 l217 0 -7 58 c-13 115 -79 204 -175 237 -55 18 -153 18 -204
0z m183 -114 c19 -10 43 -32 53 -50 l19 -31 -146 0 c-80 0 -146 3 -146 8 0 16
34 54 64 73 40 24 111 25 156 0z"/>
<path d="M2130 3795 l0 -265 34 0 c31 0 43 12 162 150 71 83 132 150 136 150
5 0 8 -67 8 -150 l0 -150 60 0 60 0 0 265 0 265 -30 0 c-25 0 -47 -20 -162
-152 l-133 -152 -3 152 -3 152 -64 0 -65 0 0 -265z"/>
<path d="M3320 4000 l0 -59 93 -3 92 -3 3 -202 2 -203 65 0 65 0 0 205 0 205
85 0 85 0 0 60 0 60 -245 0 -245 0 0 -60z"/>
<path d="M4601 4023 c-21 -81 -121 -483 -121 -488 0 -3 28 -5 63 -5 l62 0 36
158 36 157 79 -157 c71 -144 81 -158 105 -158 20 0 30 8 43 38 9 20 45 91 80
156 l64 119 27 -119 c15 -65 31 -136 36 -156 l10 -38 59 0 c33 0 60 3 60 8 0
4 -28 123 -62 265 l-63 257 -42 0 -43 0 -84 -167 -84 -168 -83 168 -84 167
-42 0 c-40 0 -43 -2 -52 -37z"/>
<path d="M5330 3794 l0 -266 148 4 c167 4 200 15 233 78 27 50 26 137 -4 180
-33 51 -72 68 -165 76 l-82 7 0 93 0 94 -65 0 -65 0 0 -266z m236 -42 c13 -9
34 -46 34 -62 0 -6 -11 -22 -25 -35 -18 -19 -35 -25 -70 -25 l-45 0 0 65 0 65
48 0 c26 0 52 -4 58 -8z"/>
<path d="M5830 3795 l0 -265 65 0 65 0 0 265 0 265 -65 0 -65 0 0 -265z"/>
<path d="M7531 4023 c-21 -81 -121 -483 -121 -488 0 -3 28 -5 63 -5 l62 0 36
158 36 157 79 -157 c71 -144 81 -158 105 -158 20 0 30 8 43 38 9 20 45 91 80
156 l64 119 27 -119 c15 -65 31 -136 36 -156 l10 -38 59 0 c33 0 60 3 60 8 0
4 -28 123 -62 265 l-63 257 -42 0 -43 0 -84 -167 -84 -168 -83 168 -84 167
-42 0 c-40 0 -43 -2 -52 -37z"/>
<path d="M8396 4028 c-7 -18 -57 -135 -110 -260 -53 -125 -96 -230 -96 -233 0
-3 28 -5 63 -5 l63 0 63 158 c35 86 67 161 71 165 4 5 37 -65 73 -155 l65
-163 66 -3 c61 -3 65 -2 58 16 -4 11 -54 130 -112 265 l-105 247 -42 0 c-39 0
-44 -3 -57 -32z"/>
<path d="M9560 3850 l-92 -210 -39 0 -39 0 0 -100 0 -100 55 0 55 0 0 45 0 45
190 0 190 0 0 -45 0 -45 60 0 60 0 0 100 0 100 -39 0 -39 0 -93 210 -93 210
-42 0 -41 0 -93 -210z m180 -96 c23 -58 39 -108 37 -110 -2 -3 -43 -4 -90 -2
l-85 3 29 73 c47 117 58 142 63 142 2 0 23 -48 46 -106z"/>
<path d="M10876 4028 c-7 -18 -57 -135 -110 -260 -53 -125 -96 -230 -96 -233
0 -3 28 -5 63 -5 l63 0 63 158 c35 86 67 161 71 165 4 5 37 -65 73 -155 l65
-163 66 -3 c61 -3 65 -2 58 16 -4 11 -54 130 -112 265 l-105 247 -42 0 c-39 0
-44 -3 -57 -32z"/>
<path d="M11280 3795 l0 -265 34 0 c31 0 43 12 162 150 71 83 132 150 136 150
5 0 8 -67 8 -150 l0 -150 60 0 60 0 0 265 0 265 -30 0 c-25 0 -47 -20 -162
-152 l-133 -152 -3 152 -3 152 -64 0 -65 0 0 -265z"/>
<path d="M12000 4051 c-19 -4 -47 -15 -62 -25 -32 -21 -68 -91 -68 -132 1 -47
35 -111 69 -129 l31 -16 -70 -104 c-38 -57 -70 -107 -70 -110 0 -3 33 -5 74
-5 l73 0 63 95 c34 52 69 95 76 95 11 0 14 -21 14 -95 l0 -95 65 0 65 0 0 265
0 265 -112 -1 c-62 -1 -129 -4 -148 -8z m130 -166 l0 -65 -38 0 c-51 0 -82 23
-82 62 0 46 25 68 77 68 l43 0 0 -65z"/>
<path d="M12350 4053 c0 -5 19 -64 42 -132 l42 -123 -42 -127 c-23 -70 -42
-130 -42 -134 0 -4 26 -7 58 -7 l58 0 44 134 43 134 -44 131 -44 131 -57 0
c-32 0 -58 -3 -58 -7z"/>
<path d="M12570 4053 c0 -5 19 -63 42 -130 l43 -122 -43 -129 c-23 -70 -42
-131 -42 -135 0 -4 26 -7 58 -7 l58 0 44 136 45 136 -45 129 -44 129 -58 0
c-32 0 -58 -3 -58 -7z"/>
</g>
</svg>
